<?xml version="1.0" encoding="utf-8"?>
<svg version="1.1" id="Capa_1" xmlns="http://www.w3.org/2000/svg" xmlns:xlink="http://www.w3.org/1999/xlink" x="0px" y="-1000px"
	 viewBox="0 0 297.19 100" style="enable-background:new 0 0 297.19 209.22;" xml:space="preserve">
<style type="text/css">
	.st0{fill:#632366;}
	.st1{fill:#632366;stroke:#471D4E;stroke-width:0.5033;stroke-miterlimit:10;}
	.st2{fill:url(#SVGID_1_);}
	.st3{fill:url(#SVGID_00000117637845967681876370000010347437680658757295_);}
	.st4{fill:url(#SVGID_00000080172251432454550780000014623649320237990067_);}
</style>
<g transform="translate(0,-55)">
	<g>
		<g>
			<path class="st0" d="M101.37,104.49V90.49h4.02v13.99c0,3.4,2.89,6.14,6.43,6.14s6.43-2.74,6.43-6.14V90.49h4.02v13.99
				c0,5.59-4.71,10.16-10.45,10.16C106.04,114.65,101.37,110.08,101.37,104.49z"/>
			<path class="st0" d="M149.38,110.63h2.01v4.02h-2.01c-4.57,0-8.33-3.22-9.13-7.42h-2.63v7.02h-4.02V90.49H144
				c4.75,0,8.59,3.76,8.59,8.37c0,4.49-3.65,8.15-8.18,8.33C145.1,109.2,147.07,110.63,149.38,110.63z M137.61,103.21H144
				c2.52,0,4.57-1.97,4.57-4.35c0-2.41-2.05-4.35-4.57-4.35h-6.39V103.21z"/>
			<path class="st0" d="M163.01,114.24V90.49h4.02v23.75H163.01z"/>
			<path class="st0" d="M200.9,114.24h-4.38l-2.08-4.79h-12.17l-2.08,4.79h-4.38l10.3-23.75h4.49L200.9,114.24z M192.71,105.44
				l-4.35-10.01l-4.35,10.01H192.71z"/>
			<path class="st0" d="M225.45,110.63h2.01v4.02h-2.01c-4.57,0-8.33-3.22-9.13-7.42h-2.63v7.02h-4.02V90.49h10.41
				c4.75,0,8.59,3.76,8.59,8.37c0,4.49-3.65,8.15-8.18,8.33C221.17,109.2,223.15,110.63,225.45,110.63z M213.68,103.21h6.39
				c2.52,0,4.57-1.97,4.57-4.35c0-2.41-2.05-4.35-4.57-4.35h-6.39V103.21z"/>
			<path class="st0" d="M255.26,94.51h-7.64v19.73h-4.02V94.51h-7.64v-4.02h19.29V94.51z"/>
			<path class="st0" d="M268.6,94.51v6.65h11.18v4.02H268.6v5.04h13.19v4.02h-17.21V90.49h17.21v4.02H268.6z"/>
		</g>
	</g>
	<g>
		<g>
			<path class="st1" d="M103.67,124.37v-3.93h0.27v3.66h2.21v0.27H103.67z"/>
			<path class="st1" d="M110.72,123.37l-0.47,1h-0.3l1.85-3.98l1.75,3.98h-0.3l-0.44-1H110.72z M111.79,121.06l-0.94,2.04h1.84
				L111.79,121.06z"/>
			<path class="st1" d="M124.2,124.41c-0.36,0-0.69-0.09-1-0.27c-0.31-0.18-0.55-0.43-0.73-0.73c-0.18-0.31-0.27-0.64-0.27-1.01
				c0-0.36,0.09-0.7,0.27-1c0.18-0.31,0.42-0.55,0.73-0.73c0.31-0.18,0.64-0.27,1-0.27c0.28,0,0.55,0.06,0.8,0.17
				c0.26,0.11,0.48,0.28,0.67,0.49l-0.21,0.19c-0.16-0.18-0.35-0.32-0.57-0.42c-0.22-0.1-0.45-0.15-0.69-0.15
				c-0.31,0-0.6,0.08-0.86,0.23c-0.26,0.16-0.47,0.37-0.63,0.63c-0.16,0.27-0.23,0.56-0.23,0.87c0,0.31,0.08,0.6,0.23,0.87
				c0.15,0.27,0.36,0.48,0.63,0.63c0.26,0.15,0.55,0.23,0.86,0.23c0.26,0,0.5-0.06,0.73-0.17c0.23-0.11,0.43-0.27,0.6-0.47
				l0.22,0.17c-0.19,0.24-0.42,0.42-0.69,0.55C124.79,124.35,124.5,124.41,124.2,124.41z"/>
			<path class="st1" d="M130.11,123.37l-0.47,1h-0.3l1.85-3.98l1.75,3.98h-0.3l-0.44-1H130.11z M131.18,121.06l-0.94,2.04h1.84
				L131.18,121.06z"/>
			<path class="st1" d="M136.81,124.37v-3.93h0.27v3.66h2.21v0.27H136.81z"/>
			<path class="st1" d="M143.42,124.37v-3.93h0.27v3.93H143.42z"/>
			<path class="st1" d="M149.08,124.37h-1.13v-3.93h1.13c0.28,0,0.54,0.05,0.77,0.15c0.24,0.1,0.44,0.25,0.62,0.44
				c0.17,0.18,0.29,0.39,0.38,0.62c0.09,0.23,0.13,0.48,0.13,0.74s-0.04,0.51-0.13,0.74c-0.09,0.23-0.22,0.44-0.38,0.63
				c-0.17,0.19-0.38,0.34-0.62,0.44C149.61,124.32,149.36,124.37,149.08,124.37z M148.22,124.1h0.86c0.49,0,0.88-0.17,1.19-0.51
				c0.14-0.15,0.25-0.33,0.32-0.53c0.07-0.2,0.11-0.42,0.11-0.65c0-0.23-0.04-0.44-0.11-0.64c-0.07-0.2-0.18-0.38-0.32-0.54
				c-0.31-0.33-0.71-0.5-1.19-0.5h-0.86V124.1z"/>
			<path class="st1" d="M155.12,123.37l-0.47,1h-0.3l1.85-3.98l1.75,3.98h-0.3l-0.44-1H155.12z M156.19,121.06l-0.94,2.04h1.84
				L156.19,121.06z"/>
			<path class="st1" d="M162.96,124.37h-1.13v-3.93h1.13c0.28,0,0.54,0.05,0.77,0.15c0.24,0.1,0.44,0.25,0.62,0.44
				c0.17,0.18,0.29,0.39,0.38,0.62c0.09,0.23,0.13,0.48,0.13,0.74s-0.04,0.51-0.13,0.74c-0.09,0.23-0.22,0.44-0.38,0.63
				c-0.17,0.19-0.38,0.34-0.62,0.44C163.49,124.32,163.23,124.37,162.96,124.37z M162.1,124.1h0.86c0.49,0,0.88-0.17,1.19-0.51
				c0.14-0.15,0.25-0.33,0.32-0.53c0.07-0.2,0.11-0.42,0.11-0.65c0-0.23-0.04-0.44-0.11-0.64c-0.07-0.2-0.18-0.38-0.32-0.54
				c-0.31-0.33-0.71-0.5-1.19-0.5h-0.86V124.1z"/>
			<path class="st1" d="M173.8,124.37l-0.01-3.93h1.4c0.23,0,0.44,0.05,0.64,0.15c0.2,0.1,0.35,0.24,0.47,0.41
				c0.12,0.17,0.17,0.35,0.17,0.56c0,0.2-0.06,0.38-0.17,0.55c-0.12,0.17-0.27,0.31-0.47,0.41c-0.2,0.1-0.41,0.15-0.64,0.15h-1.12
				v1.7H173.8z M174.07,122.38h1.12c0.18,0,0.35-0.04,0.5-0.11c0.15-0.07,0.27-0.18,0.37-0.3c0.09-0.13,0.14-0.26,0.14-0.41
				c0-0.15-0.05-0.29-0.14-0.42c-0.09-0.13-0.21-0.23-0.37-0.3c-0.15-0.07-0.32-0.11-0.5-0.11h-1.13L174.07,122.38z"/>
			<path class="st1" d="M182.15,124.41c-0.36,0-0.69-0.09-1-0.27c-0.31-0.18-0.55-0.42-0.73-0.73c-0.18-0.31-0.27-0.64-0.27-1.01
				c0-0.36,0.09-0.7,0.27-1.01c0.18-0.31,0.42-0.55,0.73-0.73c0.31-0.18,0.64-0.27,1-0.27s0.69,0.09,1,0.27
				c0.31,0.18,0.55,0.42,0.73,0.73c0.18,0.31,0.27,0.64,0.27,1.01c0,0.36-0.09,0.7-0.27,1.01c-0.18,0.31-0.42,0.55-0.73,0.73
				C182.84,124.32,182.51,124.41,182.15,124.41z M182.15,120.68c-0.31,0-0.6,0.08-0.86,0.23c-0.26,0.15-0.47,0.36-0.63,0.63
				c-0.16,0.26-0.23,0.55-0.23,0.87c0,0.31,0.08,0.6,0.23,0.87c0.15,0.26,0.36,0.47,0.63,0.63c0.26,0.15,0.55,0.23,0.86,0.23
				s0.6-0.08,0.86-0.23c0.26-0.16,0.47-0.37,0.62-0.63c0.15-0.26,0.23-0.55,0.23-0.87c0-0.31-0.08-0.6-0.23-0.87
				c-0.15-0.26-0.36-0.47-0.62-0.63C182.75,120.75,182.46,120.68,182.15,120.68z"/>
			<path class="st1" d="M190.36,124.37l-1.63-1.98h0.48c0.3,0,0.54-0.04,0.73-0.12c0.14-0.06,0.26-0.16,0.36-0.29
				c0.1-0.13,0.15-0.27,0.15-0.43c0-0.14-0.04-0.27-0.13-0.4c-0.08-0.13-0.21-0.23-0.36-0.31c-0.16-0.08-0.34-0.12-0.54-0.12h-1.1
				v3.66h-0.27v-3.93h1.37c0.19,0,0.36,0.03,0.52,0.09c0.16,0.06,0.3,0.14,0.42,0.25c0.12,0.1,0.21,0.22,0.27,0.36
				c0.06,0.13,0.09,0.27,0.09,0.41c0,0.22-0.07,0.42-0.2,0.6c-0.13,0.18-0.29,0.3-0.47,0.38c-0.12,0.06-0.25,0.09-0.37,0.11
				c-0.12,0.01-0.25,0.02-0.38,0.02l1.42,1.72H190.36z"/>
			<path class="st1" d="M199.83,124.37v-3.93h0.27v3.66h2.21v0.27H199.83z"/>
			<path class="st1" d="M206.88,123.37l-0.47,1h-0.3l1.85-3.98l1.75,3.98h-0.3l-0.44-1H206.88z M207.95,121.06l-0.94,2.04h1.84
				L207.95,121.06z"/>
			<path class="st1" d="M218.61,124.37v-3.93h2.54v0.28h-2.27v1.55h1.77v0.28h-1.77v1.54h2.27v0.28H218.61z"/>
			<path class="st1" d="M228.19,120.44l-1.4,1.96l1.4,1.96h-0.33l-1.23-1.73l-1.23,1.73h-0.33l1.4-1.96l-1.4-1.96h0.33l1.23,1.73
				l1.23-1.73H228.19z"/>
			<path class="st1" d="M233.47,124.41c-0.36,0-0.69-0.09-1-0.27c-0.31-0.18-0.55-0.43-0.73-0.73c-0.18-0.31-0.27-0.64-0.27-1.01
				c0-0.36,0.09-0.7,0.27-1c0.18-0.31,0.42-0.55,0.73-0.73c0.31-0.18,0.64-0.27,1-0.27c0.28,0,0.55,0.06,0.8,0.17
				c0.26,0.11,0.48,0.28,0.67,0.49l-0.21,0.19c-0.16-0.18-0.35-0.32-0.57-0.42c-0.22-0.1-0.45-0.15-0.69-0.15
				c-0.31,0-0.6,0.08-0.86,0.23c-0.26,0.16-0.47,0.37-0.63,0.63c-0.16,0.27-0.23,0.56-0.23,0.87c0,0.31,0.08,0.6,0.23,0.87
				c0.15,0.27,0.36,0.48,0.63,0.63c0.26,0.15,0.55,0.23,0.86,0.23c0.26,0,0.5-0.06,0.73-0.17c0.23-0.11,0.43-0.27,0.6-0.47
				l0.22,0.17c-0.19,0.24-0.42,0.42-0.69,0.55C234.06,124.35,233.77,124.41,233.47,124.41z"/>
			<path class="st1" d="M238.92,124.37v-3.93h2.54v0.28h-2.27v1.55h1.77v0.28h-1.77v1.54h2.27v0.28H238.92z"/>
			<path class="st1" d="M245.53,124.37v-3.93h0.27v3.66H248v0.27H245.53z"/>
			<path class="st1" d="M252.06,124.37v-3.93h2.54v0.28h-2.27v1.55h1.77v0.28h-1.77v1.54h2.27v0.28H252.06z"/>
			<path class="st1" d="M258.94,121.18v3.19h-0.27v-3.98l2.72,3.25v-3.2h0.27v4L258.94,121.18z"/>
			<path class="st1" d="M267.58,124.41c-0.36,0-0.69-0.09-1-0.27c-0.31-0.18-0.55-0.43-0.73-0.73c-0.18-0.31-0.27-0.64-0.27-1.01
				c0-0.36,0.09-0.7,0.27-1c0.18-0.31,0.42-0.55,0.73-0.73c0.31-0.18,0.64-0.27,1-0.27c0.28,0,0.55,0.06,0.8,0.17
				c0.26,0.11,0.48,0.28,0.67,0.49l-0.21,0.19c-0.16-0.18-0.35-0.32-0.57-0.42c-0.22-0.1-0.45-0.15-0.69-0.15
				c-0.31,0-0.6,0.08-0.86,0.23c-0.26,0.16-0.47,0.37-0.63,0.63c-0.16,0.27-0.23,0.56-0.23,0.87c0,0.31,0.08,0.6,0.23,0.87
				c0.15,0.27,0.36,0.48,0.63,0.63c0.26,0.15,0.55,0.23,0.86,0.23c0.26,0,0.5-0.06,0.73-0.17c0.23-0.11,0.43-0.27,0.6-0.47
				l0.22,0.17c-0.19,0.24-0.42,0.42-0.69,0.55C268.17,124.35,267.88,124.41,267.58,124.41z"/>
			<path class="st1" d="M273.11,124.37v-3.93h0.27v3.93H273.11z"/>
			<path class="st1" d="M278.09,123.37l-0.47,1h-0.3l1.85-3.98l1.75,3.98h-0.3l-0.44-1H278.09z M279.16,121.06l-0.94,2.04h1.84
				L279.16,121.06z"/>
		</g>
	</g>
	<linearGradient id="SVGID_1_" gradientUnits="userSpaceOnUse" x1="23.2562" y1="100.4666" x2="81.6663" y2="100.4666">
		<stop  offset="0.2024" style="stop-color:#B3386B"/>
		<stop  offset="0.8443" style="stop-color:#632366"/>
	</linearGradient>
	<path class="st2" d="M79.01,61.7c-1.47,0-2.65,1.19-2.65,2.65v45.14c0,3.3-0.61,6.45-1.83,9.44c-1.22,2.99-2.93,5.59-5.13,7.79
		c-2.28,2.28-4.88,4.03-7.79,5.25c-2.91,1.22-5.98,1.83-9.2,1.83c-3.15,0-6.18-0.61-9.09-1.83c-2.91-1.22-5.51-2.97-7.79-5.25
		c-2.2-2.2-3.92-4.8-5.13-7.79c-1.22-2.99-1.83-6.14-1.83-9.44V64.36c0-1.47-1.19-2.65-2.65-2.65h0c-1.47,0-2.65,1.19-2.65,2.65
		v45.14c0,4.01,0.73,7.83,2.18,11.45c1.46,3.62,3.56,6.77,6.32,9.44c2.75,2.83,5.92,5.02,9.5,6.55c3.58,1.53,7.3,2.3,11.15,2.3
		c4.01,0,7.79-0.77,11.33-2.3c3.54-1.53,6.69-3.72,9.44-6.55c2.75-2.67,4.86-5.82,6.31-9.44c1.45-3.62,2.18-7.43,2.18-11.45V64.36
		C81.67,62.89,80.48,61.7,79.01,61.7L79.01,61.7z"/>
	
		<linearGradient id="SVGID_00000060726880628207729590000007551540690247190718_" gradientUnits="userSpaceOnUse" x1="28.1464" y1="109.328" x2="85.6969" y2="109.328">
		<stop  offset="0" style="stop-color:#5B2465"/>
		<stop  offset="1" style="stop-color:#BE84AB"/>
	</linearGradient>
	<path style="fill:url(#SVGID_00000060726880628207729590000007551540690247190718_);" d="M83.08,71.13c-1.44,0-2.62,1.17-2.62,2.62
		v44.47c0,3.26-0.6,6.36-1.8,9.3c-1.2,2.95-2.89,5.5-5.06,7.67c-2.25,2.25-4.8,3.97-7.67,5.17c-2.87,1.2-5.89,1.8-9.07,1.8
		c-3.1,0-6.09-0.6-8.95-1.8c-2.87-1.2-5.43-2.93-7.67-5.17c-2.17-2.17-3.86-4.73-5.06-7.67c-1.2-2.94-1.8-6.05-1.8-9.3V73.75
		c0-1.44-1.17-2.62-2.62-2.62h0c-1.44,0-2.62,1.17-2.62,2.62v44.47c0,3.95,0.71,7.71,2.15,11.28c1.44,3.57,3.51,6.67,6.22,9.3
		c2.71,2.79,5.83,4.94,9.36,6.45c3.53,1.51,7.19,2.27,10.99,2.27c3.95,0,7.67-0.76,11.16-2.27c3.49-1.51,6.59-3.66,9.3-6.45
		c2.71-2.63,4.78-5.74,6.22-9.3c1.43-3.56,2.15-7.33,2.15-11.28V73.75C85.7,72.31,84.53,71.13,83.08,71.13L83.08,71.13z"/>
	
		<linearGradient id="SVGID_00000091733376806439745160000009131494219487287969_" gradientUnits="userSpaceOnUse" x1="15.4024" y1="102.5982" x2="73.8125" y2="102.5982">
		<stop  offset="0.2511" style="stop-color:#632366"/>
		<stop  offset="0.9183" style="stop-color:#A6316B"/>
	</linearGradient>
	<path style="fill:url(#SVGID_00000091733376806439745160000009131494219487287969_);" d="M71.16,63.83c-1.47,0-2.65,1.19-2.65,2.65
		v45.14c0,3.3-0.61,6.45-1.83,9.44c-1.22,2.99-2.93,5.59-5.13,7.79c-2.28,2.28-4.88,4.03-7.79,5.25c-2.91,1.22-5.98,1.83-9.2,1.83
		c-3.15,0-6.18-0.61-9.09-1.83c-2.91-1.22-5.51-2.97-7.79-5.25c-2.2-2.2-3.92-4.8-5.13-7.79c-1.22-2.99-1.83-6.14-1.83-9.44V66.49
		c0-1.47-1.19-2.65-2.65-2.65h0c-1.47,0-2.65,1.19-2.65,2.65v45.14c0,4.01,0.73,7.83,2.18,11.45c1.46,3.62,3.56,6.77,6.32,9.44
		c2.75,2.83,5.92,5.02,9.5,6.55c3.58,1.53,7.3,2.3,11.15,2.3c4.01,0,7.79-0.77,11.33-2.3c3.54-1.53,6.69-3.72,9.44-6.55
		c2.75-2.67,4.86-5.82,6.31-9.44c1.45-3.62,2.18-7.43,2.18-11.45V66.49C73.81,65.02,72.62,63.83,71.16,63.83L71.16,63.83z"/>
</g>
</svg>
